<?xml version="1.0" encoding="utf-8"?>
<!-- Generator: Adobe Illustrator 23.0.6, SVG Export Plug-In . SVG Version: 6.00 Build 0)  -->
<svg version="1.1" xmlns="http://www.w3.org/2000/svg" xmlns:xlink="http://www.w3.org/1999/xlink" x="0px" y="0px"
	 viewBox="0 0 174.52 68.56" enable-background="new 0 0 174.52 68.56" xml:space="preserve">
<g id="Layer_1" display="none">
	<rect x="-92.74" y="-36.43" display="inline" width="360" height="141.42"/>
</g>
<g id="Layer_2">
	<g>
		<g>
			<path fill="#FFFFFF" d="M4.65,32.37c23.86,9.68,47.71,19.36,71.57,29.04c3.03,1.23,6.43,3.26,9.65,3.91
				c2.61,0.53,5.51-1.4,7.83-2.37c13.88-5.8,27.76-11.6,41.63-17.4c11.21-4.68,22.42-9.37,33.63-14.05
				c4.39-1.83,2.46-9.09-1.99-7.23c-23.56,9.85-47.12,19.69-70.68,29.54c-2.28,0.95-4.57,1.91-6.85,2.86
				c-0.4,0.17-3.14,0.95-3.27,1.36c0.25-0.81,2.83,0.83,0.45-0.45c-1.62-0.87-3.52-1.43-5.22-2.12
				c-13.82-5.61-27.64-11.22-41.46-16.82c-11.1-4.5-22.2-9.01-33.3-13.51C2.17,23.32,0.23,30.57,4.65,32.37L4.65,32.37z"/>
		</g>
	</g>
	<g>
		<g>
			<path fill="#FFFFFF" d="M166.97,3.64c-23.6,9.86-47.19,19.72-70.79,29.58c-2.3,0.96-4.6,1.92-6.9,2.88
				c-0.55,0.23-3.09,0.86-3.37,1.41c0.3-0.58,2.66,0.81,0.51-0.37c-1.56-0.86-3.43-1.39-5.08-2.06
				C67.43,29.44,53.53,23.8,39.62,18.15c-11.1-4.5-22.2-9.01-33.3-13.51c-4.47-1.81-6.42,5.44-1.99,7.23
				c23.96,9.72,47.92,19.45,71.88,29.17c2.92,1.18,6.26,3.18,9.37,3.8c2.64,0.52,5.65-1.48,7.99-2.46
				c13.86-5.79,27.72-11.58,41.58-17.38c11.27-4.71,22.55-9.42,33.82-14.13C173.35,9.04,171.43,1.78,166.97,3.64L166.97,3.64z"/>
		</g>
	</g>
</g>
</svg>
